<?xml version="1.0" encoding="utf-8"?>
<!-- Generator: Adobe Illustrator 16.0.0, SVG Export Plug-In . SVG Version: 6.00 Build 0)  -->
<!DOCTYPE svg PUBLIC "-//W3C//DTD SVG 1.1//EN" "http://www.w3.org/Graphics/SVG/1.1/DTD/svg11.dtd">
<svg version="1.1" id="Untitled-P_x25_E1gina_x25_201"
	 xmlns="http://www.w3.org/2000/svg" xmlns:xlink="http://www.w3.org/1999/xlink" x="0px" y="0px" width="256px" height="256px"
	 viewBox="0 0 256 256" enable-background="new 0 0 256 256" xml:space="preserve">
<path fill="none" d="z"/>
<g id="Capa">
	<g id="circle">
		<path id="Shape_x25_201" fill="#87A103" d="M125.961,0.349c68.114,3.723,124.078,65.287,124.518,136.646
			c0.434,70.449-53.559,123.153-120.134,118.555C64.267,250.984,9.498,191.532,7.547,121.943
			C5.571,51.469,58.368-3.346,125.961,0.349z"/>
		<path id="Shape_x25_201_x25_20copy" fill="#B0DA07" d="M125.915,8.577c62.742,2.113,115.376,58.413,116.449,125.892
			c1.076,67.678-50.124,118.99-113.231,114.51C67.239,244.582,17.35,187.987,16.633,122.663
			C15.919,57.523,64.374,6.505,125.915,8.577z"/>
		<path id="Shape_x25_201_x25_20copy_x25_202" fill="#87A103" d="M117.242,29.638c50.982,9.135,94.669,58.626,100.605,114.147
			c6.207,58.051-30.554,108.268-89.056,105.293c-60.494-3.074-113.959-63.582-113.343-129.433
			C16.035,57.077,64.241,20.141,117.242,29.638z"/>
		<path id="Shape_x25_201_x25_20copy_x25_203" fill="#87A503" d="M116.588,32.973c49.625,8.99,92.388,57.602,98.195,111.648
			c6.015,55.998-29.387,103.398-85.343,99.725C72.017,240.575,20.673,182.74,20.154,119.953
			C19.656,59.627,65.288,23.679,116.588,32.973z"/>
		<path id="Shape_x25_201_x25_20copy_x25_204" fill="#B5E111" d="M116.652,38.619c46.957,8.507,87.424,54.506,92.917,105.646
			c5.692,52.989-27.807,97.843-80.756,94.365c-54.337-3.567-102.921-58.293-103.412-117.707
			C24.93,63.841,68.108,29.824,116.652,38.619z"/>
		<path id="Shape_x25_201_x25_20copy_x25_205" fill="#FFFFFF" d="M116.735,45.817c43.558,7.891,81.093,50.559,86.188,97.997
			c5.28,49.152-25.793,90.757-74.908,87.531c-50.402-3.309-95.468-54.072-95.924-109.184
			C31.655,69.212,71.707,37.659,116.735,45.817z"/>
		<path id="Shape_x25_201_x25_20copy_x25_206" fill="#A7CB13" d="M116.774,48.999c42.056,7.619,78.298,48.816,83.218,94.619
			c5.098,47.459-24.903,87.629-72.326,84.516c-48.666-3.195-92.178-52.209-92.618-105.421
			C34.626,71.587,73.298,41.122,116.774,48.999z"/>
		<path id="Shape_x25_201_x25_20copy_x25_207" fill="#FFFFFF" d="M113.723,55.508c37.488,6.792,69.793,43.514,74.18,84.342
			c4.543,42.303-22.199,78.111-64.471,75.335c-43.379-2.849-82.166-46.538-82.558-93.97C40.498,75.643,74.969,48.487,113.723,55.508
			z"/>
	</g>
	<g id="palmera">
		<path id="Shape_x25_2012" d="M101.531,105.876c0,0-45.037-9.086-43.457,29.235c1.185,17.777,4.741,20.148,4.741,20.148
			s1.185-6.321,11.062-8.297c9.876-1.975,30.025-9.877,32-17.383c-0.79,10.667,0,61.63,0,61.63s-35.839-1.099-33.185,0.79
			c13.695,9.744,42.93,35.16,87.045,14.354c-7.9-11.852-44.773-14.354-44.773-14.354l0.395-62.814c0,0,3.951,15.012,31.605,20.148
			c27.654,5.135,27.26,21.728,28.049,23.703c0.791,1.975,13.828-52.148-30.023-67.161c-10.668-4.346-20.149,3.161-20.149,3.161
			s-2.765-3.161-0.395-6.716c2.371-3.555,13.037-6.716,11.062-26.864C116.148,73.481,96,85.333,101.531,105.876z"/>
		<path id="Shape_x25_203" fill="#FFFFFF" d="M114.568,101.531c0,0,2.371-13.037,7.506-15.012
			C120.494,90.074,114.963,99.556,114.568,101.531z"/>
		<path id="Shape_x25_204" fill="#FFFFFF" d="M138.666,118.124c0,0,29.631,3.951,31.211,32.395
			C165.136,140.643,162.371,125.234,138.666,118.124z"/>
		<path id="Shape_x25_202" fill="#FFFFFF" d="M100.346,114.963c0,0-24.889-4.346-31.605,16.197
			C72.691,126.42,79.407,116.543,100.346,114.963z"/>
	</g>
	<path id="Shape_x25_205" display="none" d="M71.506,179.357l7.111,15.014l4.346-1.581l-6.321-15.407L71.506,179.357z"/>
	<path id="Shape_x25_206" d="M93.629,175.803l1.186,17.777l5.136-0.395l-1.185-17.778L93.629,175.803z"/>
	<path id="Shape_x25_2012_1_" d="M83.753,174.881l3.161,18.963l-3.687,0.527l-3.688-20.018L83.753,174.881z"/>
	<path id="Shape_x25_2013" d="M70.584,175.934l6.848,17.91l-3.688-0.527l-7.901-15.802L70.584,175.934z"/>
	<path id="Shape_x25_207" d="M123.259,176.988l-1.58,18.172l4.346,0.791l3.161-18.963H123.259z"/>
	<path id="Shape_x25_208" d="M138.666,179.357l-5.135,18.568l4.74,0.79l5.531-18.173L138.666,179.357z"/>
	<path id="Shape_x25_209" d="M153.68,183.309l-8.691,16.593l3.555,1.185l9.877-15.802L153.68,183.309z"/>
	<path id="Shape_x25_2010" d="M168.375,188.918l-12.721,16.119l2.766,1.975l13.195-15.723L168.375,188.918z"/>
	<path id="Shape_x25_2011" d="M172.761,194.528c0,0-17.37-17.014-60.958-18.726c-41.452-1.629-48.198,5.136-48.198,5.136
		l-2.371-4.346c0,0,7.911-7.69,48.593-5.531c44.168,2.345,64.79,19.753,64.79,19.753L172.761,194.528z"/>
	<g id="brillo">
		<path id="Shape_x25_2032" opacity="0.2902" fill="#FFFFFF" enable-background="new    " d="M201.481,105.086
			C187.26,92.444,42.667,34.766,33.185,173.827C15.802,128,8.367,57.958,83.753,34.766
			C150.059,14.366,203.062,94.025,201.481,105.086z"/>
		<path id="Shape_x25_2022" opacity="0.2902" fill="#FFFFFF" enable-background="new    " d="M60.839,208.593
			c0,0,124.84,77.433,152.495-62.42C219.654,203.852,157.234,295.506,60.839,208.593z"/>
	</g>
</g>
<path fill="none" d="z"/>
</svg>
